<svg id="Group_87" data-name="Group 87" xmlns="http://www.w3.org/2000/svg" xmlns:xlink="http://www.w3.org/1999/xlink" width="744" height="504" viewBox="0 0 744 504">
  <defs>
    <clipPath id="clip-path">
      <rect id="Rectangle_33" data-name="Rectangle 33" width="744" height="504" transform="translate(290.015 -90.583)" fill="#fff"/>
    </clipPath>
    <linearGradient id="linear-gradient" y1="0.5" x2="1" y2="0.5" gradientUnits="objectBoundingBox">
      <stop offset="0" stop-color="#3e815b"/>
      <stop offset="1" stop-color="#277455"/>
    </linearGradient>
    <linearGradient id="linear-gradient-2" y1="0.5" x2="1" y2="0.5" gradientUnits="objectBoundingBox">
      <stop offset="0" stop-color="#ceefe5"/>
      <stop offset="1" stop-color="#27c888"/>
    </linearGradient>
    <linearGradient id="linear-gradient-3" y1="0.5" x2="1" y2="0.5" gradientUnits="objectBoundingBox">
      <stop offset="0" stop-color="#428eec"/>
      <stop offset="1" stop-color="#2771cc" stop-opacity="0.831"/>
    </linearGradient>
    <linearGradient id="linear-gradient-4" y1="0.5" x2="1" y2="0.5" gradientUnits="objectBoundingBox">
      <stop offset="0" stop-color="#cbce55"/>
      <stop offset="1" stop-color="#217b4f"/>
    </linearGradient>
  </defs>
  <g id="Group_87-2" data-name="Group 87" transform="translate(-290.015 90.583)" clip-path="url(#clip-path)">
    <g id="Group_86" data-name="Group 86" transform="translate(316.436 -69.119)">
      <path id="Path_2204" data-name="Path 2204" d="M1674.355,150.582c-1.352,33.848,29.865,90.47,3.536,115.4-7.687,6.251-6.477,9.857-15.944,9.848-167.541,1.161-416.583-2.429-585.121-2.607-71.543-48.662-21.162-185.126,86.241-230.587,93.326-39.5,92.026-196.427,224.031-187.076,52.086,3.69,63.259,12.048,103.1,1.2C1836.393-237.473,1667.13,51.72,1674.355,150.582Z" transform="translate(-1042.957 161.852)" fill="#f8f8f8" opacity="0.1"/>
      <g id="Group_85" data-name="Group 85" transform="translate(104.761 139.18)">
        <rect id="Rectangle_7" data-name="Rectangle 7" width="226.882" height="151.547" transform="translate(101.499 3.311)" fill="url(#linear-gradient)"/>
        <g id="Group_34" data-name="Group 34" transform="translate(97.344)">
          <path id="Path_2205" data-name="Path 2205" d="M2016.042,659.9H1780.85V501.736h235.2ZM1785,656.592h226.884V505.047H1785Z" transform="translate(-1780.85 -501.736)" fill="#002822"/>
        </g>
        <path id="Path_2206" data-name="Path 2206" d="M2005.519,1195.926H1767.773a2.34,2.34,0,0,1-2.333-2.333h0a2.34,2.34,0,0,1,2.333-2.333h237.746a2.341,2.341,0,0,1,2.333,2.333h0a2.34,2.34,0,0,1-2.333,2.333Z" transform="translate(-1671.526 -1037.884)" fill="#002822"/>
        <path id="Path_2207" data-name="Path 2207" d="M2587.6,1180.452h-6.837a1.549,1.549,0,0,1-1.545-1.545h0a1.55,1.55,0,0,1,1.545-1.546h6.832a1.55,1.55,0,0,1,1.545,1.546h0A1.55,1.55,0,0,1,2587.6,1180.452Z" transform="translate(-2304.291 -1027.078)" fill="#eaf7f9"/>
        <rect id="Rectangle_8" data-name="Rectangle 8" width="5.747" height="3.091" rx="1.545" transform="translate(233.201 150.283)" fill="#eaf7f9"/>
        <path id="Path_2208" data-name="Path 2208" d="M2347.455,1180.452h-6.917a1.55,1.55,0,0,1-1.545-1.545h0a1.55,1.55,0,0,1,1.545-1.546h6.917a1.55,1.55,0,0,1,1.546,1.546h0a1.549,1.549,0,0,1-1.546,1.545Z" transform="translate(-2117.499 -1027.078)" fill="#eaf7f9"/>
        <g id="Group_41" data-name="Group 41" transform="translate(362.814 28.572)">
          <path id="Rectangle_9" data-name="Rectangle 9" d="M8.586,0H28.619A8.586,8.586,0,0,1,37.2,8.586V27.509A8.587,8.587,0,0,1,28.617,36.1H8.585A8.585,8.585,0,0,1,0,27.509V8.586A8.586,8.586,0,0,1,8.586,0Z" transform="translate(0 0)" fill="#002822"/>
          <path id="Rectangle_10" data-name="Rectangle 10" d="M7.841,0h18.3a7.841,7.841,0,0,1,7.841,7.841V25.125a7.841,7.841,0,0,1-7.841,7.841H7.841A7.841,7.841,0,0,1,0,25.125V7.841A7.841,7.841,0,0,1,7.841,0Z" transform="translate(1.612 1.564)" fill="url(#linear-gradient-2)"/>
          <g id="Group_37" data-name="Group 37" transform="translate(4.39 4.087)">
            <g id="Group_35" data-name="Group 35" transform="translate(13.445)">
              <path id="Path_2209" data-name="Path 2209" d="M3054.5,649.333a.771.771,0,1,1,.771.771A.771.771,0,0,1,3054.5,649.333Z" transform="translate(-3054.5 -648.563)" fill="#002822"/>
              <path id="Path_2210" data-name="Path 2210" d="M3082.117,655.538a.771.771,0,1,1,.3,1.048.77.77,0,0,1-.3-1.048Z" transform="translate(-3075.899 -653.678)" fill="#002822"/>
              <path id="Path_2211" data-name="Path 2211" d="M3105.169,675.524a.771.771,0,1,1-.229,1.065A.77.77,0,0,1,3105.169,675.524Z" transform="translate(-3093.627 -669.431)" fill="#002822"/>
              <path id="Path_2212" data-name="Path 2212" d="M3115.572,705.407a.771.771,0,1,1-.771.771A.771.771,0,0,1,3115.572,705.407Z" transform="translate(-3101.392 -692.763)" fill="#002822"/>
              <path id="Path_2213" data-name="Path 2213" d="M3107.606,738.8a.77.77,0,1,1-.545-.226A.77.77,0,0,1,3107.606,738.8Z" transform="translate(-3094.774 -718.551)" fill="#002822"/>
              <path id="Path_2214" data-name="Path 2214" d="M3085.856,760.611a.77.77,0,1,1-.545-.226A.77.77,0,0,1,3085.856,760.611Z" transform="translate(-3077.86 -735.512)" fill="#002822"/>
              <path id="Path_2215" data-name="Path 2215" d="M3054.5,769.951a.771.771,0,1,1,.771.771A.771.771,0,0,1,3054.5,769.951Z" transform="translate(-3054.5 -742.35)" fill="#002822"/>
            </g>
            <g id="Group_36" data-name="Group 36" transform="translate(0 1.463)">
              <path id="Path_2216" data-name="Path 2216" d="M3028.306,655.539a.77.77,0,1,0,.068.586.77.77,0,0,0-.068-.586Z" transform="translate(-3019.566 -655.143)" fill="#002822"/>
              <path id="Path_2217" data-name="Path 2217" d="M3005.255,675.524a.771.771,0,1,0,.229,1.065A.771.771,0,0,0,3005.255,675.524Z" transform="translate(-3001.84 -670.894)" fill="#002822"/>
              <path id="Path_2218" data-name="Path 2218" d="M2994.842,705.407a.771.771,0,1,0,.771.771A.771.771,0,0,0,2994.842,705.407Z" transform="translate(-2994.072 -694.226)" fill="#002822"/>
              <path id="Path_2219" data-name="Path 2219" d="M3002.807,738.8a.769.769,0,1,0,.544-.226A.771.771,0,0,0,3002.807,738.8Z" transform="translate(-3000.688 -720.015)" fill="#002822"/>
              <path id="Path_2220" data-name="Path 2220" d="M3024.567,760.612a.771.771,0,1,0,1.09,0A.771.771,0,0,0,3024.567,760.612Z" transform="translate(-3017.606 -736.976)" fill="#002822"/>
            </g>
          </g>
          <g id="Group_40" data-name="Group 40" transform="translate(18.391 7.874)">
            <path id="Path_2221" data-name="Path 2221" d="M3057.02,706.182a.77.77,0,1,1,.77.771A.77.77,0,0,1,3057.02,706.182Z" transform="translate(-3057.02 -696.551)" fill="#002822"/>
            <g id="Group_38" data-name="Group 38" transform="translate(0.669)">
              <rect id="Rectangle_11" data-name="Rectangle 11" width="0.21" height="9.628" fill="#002822"/>
            </g>
            <g id="Group_39" data-name="Group 39" transform="translate(0.482 5.362)">
              <rect id="Rectangle_12" data-name="Rectangle 12" width="6.489" height="0.631" transform="translate(0 4.004) rotate(-38.096)" fill="#002822"/>
            </g>
          </g>
        </g>
        <path id="Path_2222" data-name="Path 2222" d="M1422.534,1410.391v2.143c0,.75-.243,1.361-.54,1.361h-78.22c-.3,0-.539-.613-.539-1.361v-2.143c0-.749.243-1.361.539-1.361h78.22C1422.295,1409.024,1422.534,1409.639,1422.534,1410.391Z" transform="translate(-1343.235 -1207.213)" fill="#3382e2"/>
        <path id="Path_2223" data-name="Path 2223" d="M1479.208,1410.391v2.143c0,.75-.223,1.361-.5,1.361h-62.1c-.272,0-.495-.613-.495-1.361v-2.143c0-.749.223-1.361.495-1.361h62.1C1478.981,1409.024,1479.208,1409.639,1479.208,1410.391Z" transform="translate(-1399.904 -1207.213)" fill="#428eec"/>
        <rect id="Rectangle_13" data-name="Rectangle 13" width="71.094" height="80.941" transform="translate(3.973 206.683)" fill="#428eec"/>
        <rect id="Rectangle_14" data-name="Rectangle 14" width="55.532" height="80.941" transform="translate(19.535 206.683)" fill="url(#linear-gradient-3)"/>
        <g id="Group_45" data-name="Group 45" transform="translate(22.52 208.97)">
          <g id="Group_42" data-name="Group 42" transform="translate(0 0)">
            <path id="Path_2224" data-name="Path 2224" d="M1494.033,1515.383h-49.564V1441.2h49.564Zm-49.029-.535H1493.5v-73.11H1445Z" transform="translate(-1444.469 -1441.2)" fill="#f8f8f8"/>
          </g>
          <g id="Group_43" data-name="Group 43" transform="translate(0.267 24.541)">
            <rect id="Rectangle_15" data-name="Rectangle 15" width="49.029" height="0.535" fill="#f8f8f8"/>
          </g>
          <g id="Group_44" data-name="Group 44" transform="translate(0.267 49.56)">
            <rect id="Rectangle_16" data-name="Rectangle 16" width="49.029" height="0.535" fill="#f8f8f8"/>
          </g>
          <path id="Path_2225" data-name="Path 2225" d="M1543.853,1457.1h-9.1a.8.8,0,0,1-.8-.8h0a.8.8,0,0,1,.8-.8h9.1a.806.806,0,0,1,.8.8h0a.805.805,0,0,1-.8.8Z" transform="translate(-1514.05 -1452.313)" fill="#f8f8f8"/>
          <path id="Path_2226" data-name="Path 2226" d="M1543.853,1567.088h-9.1a.8.8,0,0,1-.8-.8h0a.8.8,0,0,1,.8-.8h9.1a.806.806,0,0,1,.8.8h0a.805.805,0,0,1-.8.8Z" transform="translate(-1514.05 -1537.838)" fill="#f8f8f8"/>
          <path id="Path_2227" data-name="Path 2227" d="M1543.853,1681.748h-9.1a.8.8,0,0,1-.8-.8h0a.8.8,0,0,1,.8-.8h9.1a.806.806,0,0,1,.8.8h0A.805.805,0,0,1,1543.853,1681.748Z" transform="translate(-1514.05 -1626.995)" fill="#f8f8f8"/>
        </g>
        <g id="Group_46" data-name="Group 46" transform="translate(378.078 218.685)">
          <path id="Path_2228" data-name="Path 2228" d="M3047.886,1552.892h.1a1.011,1.011,0,0,0,1.011-1.037l-1.533-66.453-4.516-.527,3.851,66.985a1.093,1.093,0,0,0,1.09,1.032Z" transform="translate(-3042.944 -1484.875)" fill="#176bd2"/>
        </g>
        <g id="Group_47" data-name="Group 47" transform="translate(404.396 218.685)">
          <path id="Path_2229" data-name="Path 2229" d="M3166.206,1552.892h.1a1.011,1.011,0,0,0,1.011-1.037l-1.533-66.453-4.516-.527,3.851,66.985A1.093,1.093,0,0,0,3166.206,1552.892Z" transform="translate(-3161.263 -1484.875)" fill="#176bd2"/>
        </g>
        <g id="Group_48" data-name="Group 48" transform="translate(335.602 218.685)">
          <path id="Path_2230" data-name="Path 2230" d="M2853.108,1552.892h-.1a1.011,1.011,0,0,1-1.011-1.037l1.533-66.453,4.517-.527-3.852,66.985A1.093,1.093,0,0,1,2853.108,1552.892Z" transform="translate(-2852 -1484.875)" fill="#176bd2"/>
        </g>
        <path id="Path_2231" data-name="Path 2231" d="M2980.814,1258.813v-45.537a14.507,14.507,0,0,0-14.507-14.506H2933.5a14.508,14.508,0,0,0-14.508,14.508v47.277Z" transform="translate(-2568.484 -1043.725)" fill="#4795f5"/>
        <path id="Rectangle_17" data-name="Rectangle 17" d="M7.189,0H67.7V7.189H0A7.189,7.189,0,0,1,7.189,0Z" transform="translate(412.329 222.279) rotate(180)" fill="#176bd2"/>
        <path id="Rectangle_18" data-name="Rectangle 18" d="M3.594,0H50.773a3.6,3.6,0,0,1,3.595,3.595h0A3.6,3.6,0,0,1,50.773,7.19H3.594A3.594,3.594,0,0,1,0,3.595H0A3.594,3.594,0,0,1,3.595,0Z" transform="translate(388.18 222.279) rotate(180)" fill="#4795f5"/>
        <g id="Group_51" data-name="Group 51" transform="translate(288.282 188.807)">
          <g id="Group_49" data-name="Group 49" transform="translate(149.108 4.052)">
            <path id="Path_2232" data-name="Path 2232" d="M3316.132,1464h.13a1.38,1.38,0,0,0,1.336-1.448l-2.027-93.043-5.972-.738,5.092,93.788A1.483,1.483,0,0,0,3316.132,1464Z" transform="translate(-3309.599 -1368.773)" fill="#176bd2"/>
          </g>
          <g id="Group_50" data-name="Group 50" transform="translate(8.512 4.052)">
            <path id="Path_2233" data-name="Path 2233" d="M2679,1464h-.13a1.381,1.381,0,0,1-1.337-1.448l2.027-93.043,5.973-.738-5.093,93.788A1.484,1.484,0,0,1,2679,1464Z" transform="translate(-2677.535 -1368.773)" fill="#176bd2"/>
          </g>
          <rect id="Rectangle_19" data-name="Rectangle 19" width="169.207" height="6.502" rx="3.251" fill="#176bd2"/>
        </g>
        <g id="Group_58" data-name="Group 58" transform="translate(302.406 179.498)">
          <g id="Group_53" data-name="Group 53" transform="translate(0 0)">
            <g id="Group_52" data-name="Group 52">
              <path id="Rectangle_20" data-name="Rectangle 20" d="M0,0H14.392a2.592,2.592,0,0,1,2.592,2.592h0a2.65,2.65,0,0,1-2.65,2.65H0Z" transform="translate(0.789 0.003)" fill="#eaf7f9"/>
              <path id="Path_2234" data-name="Path 2234" d="M2733.2,1310.869v.789a2.3,2.3,0,0,1-2.3,2.3h-27.807a.333.333,0,0,1-.333-.332v-.118a.333.333,0,0,1,.333-.332h16.952a2.147,2.147,0,0,0,.487-1.36v-1a2.084,2.084,0,0,0-.461-1.312h-16.979a.333.333,0,0,1-.333-.333v-.118a.333.333,0,0,1,.333-.333h27.949a2.156,2.156,0,0,1,2.156,2.156Z" transform="translate(-2702.758 -1308.711)" fill="#01483f"/>
              <path id="Path_2235" data-name="Path 2235" d="M2733.114,1310.272h-12.652a2.1,2.1,0,0,0-.393-.777H2703.09a.333.333,0,0,1-.333-.333v-.118a.333.333,0,0,1,.333-.333h27.95A2.157,2.157,0,0,1,2733.114,1310.272Z" transform="translate(-2702.757 -1308.71)" fill="#067254"/>
            </g>
            <path id="Path_2236" data-name="Path 2236" d="M2706.3,1320.5l2.059.088-2.059.053Z" transform="translate(-2705.511 -1317.874)" fill="#c9fce9"/>
            <path id="Path_2237" data-name="Path 2237" d="M2706.3,1324.19l4.9.088-4.9.053Z" transform="translate(-2705.511 -1320.746)" fill="#c9fce9"/>
          </g>
          <g id="Group_57" data-name="Group 57" transform="translate(2.223 5.234)">
            <g id="Group_55" data-name="Group 55" transform="translate(0 0)">
              <g id="Group_54" data-name="Group 54">
                <path id="Path_2238" data-name="Path 2238" d="M2714.858,1336.306h15.8v-4.077h-15.925a1.974,1.974,0,0,0-1.975,1.974h0A2.1,2.1,0,0,0,2714.858,1336.306Z" transform="translate(-2712.756 -1332.229)" fill="#847d3d"/>
                <path id="Path_2239" data-name="Path 2239" d="M2781.991,1336.306h17.971v-4.077h-18.016a2.016,2.016,0,0,0-2.016,2.016h0a2.062,2.062,0,0,0,2.061,2.062Z" transform="translate(-2764.985 -1332.229)" fill="#eaf7f9"/>
                <path id="Path_2240" data-name="Path 2240" d="M2773.464,1348.429h21.857a.305.305,0,0,0,.3-.305h0a.3.3,0,0,0-.305-.3h-21.857a.3.3,0,0,0-.3.3h0a.3.3,0,0,0,.3.305Z" transform="translate(-2759.722 -1344.35)" fill="#847d3d"/>
                <path id="Path_2241" data-name="Path 2241" d="M2773.464,1332.839h21.857a.305.305,0,0,0,.3-.305h0a.305.305,0,0,0-.305-.3h-21.857a.3.3,0,0,0-.3.3h0a.3.3,0,0,0,.3.305Z" transform="translate(-2759.722 -1332.229)" fill="#847d3d"/>
              </g>
              <path id="Path_2242" data-name="Path 2242" d="M2861.491,1341.39l-2.428.068,2.428.041Z" transform="translate(-2826.52 -1339.353)" fill="#c9fce9"/>
              <path id="Path_2243" data-name="Path 2243" d="M2849.792,1337.17l-5.778.069,5.778.042Z" transform="translate(-2814.814 -1336.073)" fill="#c9fce9"/>
            </g>
            <g id="Group_56" data-name="Group 56" transform="translate(29.258 1.154)">
              <path id="Path_2244" data-name="Path 2244" d="M2844.28,1337.42a.948.948,0,0,1,.33.463.7.7,0,0,1,.025.161c.014.382,0,1.248,0,1.248l.731-.433.729.433v-1.173a.933.933,0,0,0-.178-.579.276.276,0,0,0-.2-.12Z" transform="translate(-2844.28 -1337.42)" fill="#fd9c28"/>
              <path id="Path_2245" data-name="Path 2245" d="M2844.28,1337.42a.948.948,0,0,1,.33.463l1.465.017s-.058-.412-.359-.48Z" transform="translate(-2844.28 -1337.42)" fill="#e65924"/>
            </g>
          </g>
        </g>
        <g id="Group_62" data-name="Group 62" transform="translate(299.946 175.581)">
          <g id="Group_61" data-name="Group 61" transform="translate(0 0)">
            <g id="Group_60" data-name="Group 60">
              <g id="Group_59" data-name="Group 59">
                <path id="Rectangle_21" data-name="Rectangle 21" d="M0,0H7.792a1.9,1.9,0,0,1,1.9,1.9h0a2.02,2.02,0,0,1-2.02,2.02H0Z" transform="translate(25.59 0.002)" fill="#fd9c28"/>
                <path id="Path_2246" data-name="Path 2246" d="M2724.121,1295.021h-26.5V1291.1h26.539a1.937,1.937,0,0,1,1.937,1.937h0a1.981,1.981,0,0,1-1.98,1.984Z" transform="translate(-2696.307 -1291.1)" fill="#eaf7f9"/>
                <path id="Path_2247" data-name="Path 2247" d="M2723.335,1306.662h-31.351a.292.292,0,0,1-.293-.293h0a.293.293,0,0,1,.293-.293h31.351a.293.293,0,0,1,.293.293h0a.293.293,0,0,1-.293.293Z" transform="translate(-2691.691 -1302.745)" fill="#fd9c28"/>
                <path id="Path_2248" data-name="Path 2248" d="M2723.335,1291.692h-31.351a.293.293,0,0,1-.293-.292h0a.293.293,0,0,1,.293-.293h31.351a.293.293,0,0,1,.293.293h0A.293.293,0,0,1,2723.335,1291.692Z" transform="translate(-2691.691 -1291.102)" fill="#fd9c28"/>
              </g>
            </g>
          </g>
        </g>
        <g id="Group_67" data-name="Group 67" transform="translate(409.239 119.228)">
          <g id="Group_64" data-name="Group 64" transform="translate(15.778 0)">
            <g id="Group_63" data-name="Group 63" transform="translate(2.796 1.572)">
              <path id="Path_2249" data-name="Path 2249" d="M3276.685,1110.179h-1.121v-19.312l11.471-29.276-20.486-15.877.687-.887,21.149,16.388-11.7,29.86Z" transform="translate(-3266.549 -1044.827)" fill="#002822"/>
            </g>
            <path id="Path_2250" data-name="Path 2250" d="M3254.458,1042.235h0a1.143,1.143,0,0,1-.271-1.595l1.707-2.406a1.144,1.144,0,0,1,1.595-.271h0a1.144,1.144,0,0,1,.271,1.595l-1.706,2.407A1.145,1.145,0,0,1,3254.458,1042.235Z" transform="translate(-3253.976 -1037.752)" fill="#002822"/>
            <path id="Path_2251" data-name="Path 2251" d="M3353.86,1113.484a1.485,1.485,0,1,1,1.485,1.485,1.485,1.485,0,0,1-1.485-1.485Z" transform="translate(-3331.642 -1095.481)" fill="#002822"/>
          </g>
          <g id="Group_65" data-name="Group 65" transform="translate(0 0.755)">
            <path id="Path_2252" data-name="Path 2252" d="M3201.84,1061.529c-.054.06-.107.12-.162.175l-.011.013c-.052.058-.1.114-.158.168-1.532,1.329-6.61-1.054-11.524-5.448s-7.847-9.176-6.7-10.846c.049-.06.1-.118.15-.176l.011-.013c.049-.061.1-.12.156-.181a12.231,12.231,0,1,1,18.235,16.307Z" transform="translate(-3183.038 -1041.144)" fill="#e65924"/>
            <path id="Path_2253" data-name="Path 2253" d="M3201.677,1075.188l-.011.011c-.017.022-.034.042-.051.065a.954.954,0,0,1-.109.106c-1.531,1.328-6.61-1.052-11.523-5.448s-7.847-9.174-6.7-10.845a1.38,1.38,0,0,1,.095-.12.391.391,0,0,1,.056-.057l.012-.014c1.043-.986,3.874-.106,7.183,2.036a36.187,36.187,0,0,1,4.382,3.375,38.557,38.557,0,0,1,3.125,3.135C3201.12,1070.814,3202.623,1073.931,3201.677,1075.188Z" transform="translate(-3183.037 -1054.623)" fill="#fd9c28"/>
            <path id="Path_2254" data-name="Path 2254" d="M3222.149,1075.945a5.042,5.042,0,0,1-7.508-6.51,36.191,36.191,0,0,1,4.382,3.375,38.343,38.343,0,0,1,3.125,3.135Z" transform="translate(-3207.046 -1063.143)" fill="url(#linear-gradient-4)"/>
          </g>
          <g id="Group_66" data-name="Group 66" transform="translate(22.31 48.98)">
            <path id="Rectangle_22" data-name="Rectangle 22" d="M3.087,0H8.073a3.212,3.212,0,0,1,3.212,3.212H0V3.087A3.087,3.087,0,0,1,3.087,0Z" transform="translate(0 17.387)" fill="#067254"/>
            <rect id="Rectangle_23" data-name="Rectangle 23" width="2.37" height="17.943" transform="translate(4.649)" fill="#002822"/>
          </g>
        </g>
        <g id="Group_68" data-name="Group 68" transform="translate(196.133 166.212)">
          <path id="Path_2255" data-name="Path 2255" d="M2224.97,1288.209l9.756-39.24,68.921,17.135Zm12.893-34.028-6.934,27.885,55.907-15.708Z" transform="translate(-2224.97 -1248.969)" fill="#847d3d"/>
        </g>
        <rect id="Rectangle_24" data-name="Rectangle 24" width="3.278" height="21.274" transform="translate(229.423 174.278) rotate(13.963)" fill="#45391d"/>
        <g id="Group_71" data-name="Group 71" transform="translate(119.864 37.168)">
          <path id="Path_2256" data-name="Path 2256" d="M2066.556,1155.759c-4.727,29.426-8.624,61.136-6.934,77.831,1.389,4.674,5.685,6.232,9.48,6.839l-2.608,2.846-7.347.42-9.8-3.863a39.535,39.535,0,0,0,1.017-5.314c.519-3.925-1.3-12.9-1.3-12.9s-4.782-30.988-2.062-37.946a28.411,28.411,0,0,0,1.6-6.7h0c.8-6.258.352-13.783-.175-21.1-.572-7.944-1.236-15.64-.485-21.2a401.54,401.54,0,0,0,3.467-47.28h19.24s5.452,15.489,2.91,28.765C2071.391,1127.452,2068.876,1141.327,2066.556,1155.759Z" transform="translate(-2009.668 -994.295)" fill="#f5c99d"/>
          <path id="Path_2257" data-name="Path 2257" d="M2056.485,1396.253c.8-6.258.353-13.783-.175-21.1l14.2-5.744,3.933,5.627C2073.846,1375.781,2063.277,1388.25,2056.485,1396.253Z" transform="translate(-2017.559 -1213.58)" fill="#d8a982"/>
          <path id="Path_2258" data-name="Path 2258" d="M2305.58,983.083a36.37,36.37,0,0,1,3.739-3.443c1.559-1.14,5.939-2.279,6.384-.367.2.851-1.341,2.732-2.448,3.4s-1.28,1.524-2.458,2.722-4.058,1.26-4.058,1.26Z" transform="translate(-2211.385 -909.423)" fill="#f5c99d"/>
          <path id="Path_2259" data-name="Path 2259" d="M1975.11,723.46c-.916-1.768,20-8.134,20.33,9.313,0,0,39.179-.963,20.471-22.8-6.476-7.56-5.81-13.81-5.616-19.629s-4.033-22.731-18.534-21.029a10.8,10.8,0,0,0-8.537.914C1972.447,675.82,1948.3,729.894,1975.11,723.46Z" transform="translate(-1944.929 -668.835)" fill="#070707"/>
          <path id="Path_2260" data-name="Path 2260" d="M2139.93,899.377a38.231,38.231,0,0,0,3.9,5.9c3.031,3.8,7.7,8.181,13.57,9.046a14.565,14.565,0,0,0,8.062-1.308h.009c7.125-3.163,12.483-10.434,12.483-10.434a5.858,5.858,0,0,0-.8-5.748s-14.386,3.236-15.758,2.551-9.363-23.712-11.265-26.605-8.391-4.4-8.391-4.4Z" transform="translate(-2082.58 -823.991)" fill="#b8db70"/>
          <path id="Path_2261" data-name="Path 2261" d="M2155.884,1007.609c3.031,3.8,7.7,8.18,13.57,9.046a14.564,14.564,0,0,0,8.062-1.308c-.279.037-7.395.916-10.231-4.159-2.894-5.177-6.022-13.4-10.32-10.658C2155.113,1001.712,2155.191,1004.654,2155.884,1007.609Z" transform="translate(-2094.633 -926.326)" fill="#97c157"/>
          <path id="Path_2262" data-name="Path 2262" d="M1898.887,1704.623h-6.63c-1.927,0-4.122-1.476-4.658-4.955s-4.5-5.379-5.354-8.223c-.588-1.955.8-3.352,2.119-4.427.6-.494,1.19-.919,1.564-1.3,1.349-1.361,2.62-7.24,2.62-7.24l6.993,3.679a16.3,16.3,0,0,0-1.394,11.9c.888,2.944,1.685,5.658,3.647,7.35a6.574,6.574,0,0,0,1.6,1.017C1902.458,1703.807,1898.887,1704.623,1898.887,1704.623Z" transform="translate(-1882.107 -1453.899)" fill="#f5c99d"/>
          <path id="Path_2263" data-name="Path 2263" d="M1979.79,880.636a98.29,98.29,0,0,0,0,11.4c.245,4.122,4.414,9.644,5.006,11.009,1.484,3.426,3.158,3.983,3.158,3.983L2000.9,910.2l4.554,1.115,14.36-4.289s6.541-18.256,3.914-28.533a78.986,78.986,0,0,0-6.639-17.413s-16.51-4.294-29.3-.559Z" transform="translate(-1957.934 -816.699)" fill="#b8db70"/>
          <path id="Path_2264" data-name="Path 2264" d="M1935.469,1084.42s-10.848,14.555-11.86,24.394,8.581,37.073,6.426,46.664c-1.6,7.119-10.123,12.767-12.478,30.714-.818,6.234-3.768,18.7-6.489,30.367l6.01,5.9c14.316-32.628,29.12-53.169,29.993-60.382.618-5.105,3.522-31.963,15.263-51.79,2.819-4.76-1.73-23.689-1.73-23.689Z" transform="translate(-1904.625 -991.981)" fill="#f5c99d"/>
          <path id="Path_2265" data-name="Path 2265" d="M2010.465,1120.242c-1.595,19.435-3.472,35.805-3.472,35.805a47.915,47.915,0,0,1-21.886,6.883h0a42.442,42.442,0,0,1-19.424-3.361s-2.639-46.934-.96-54.41,9.119-17.763,9.119-17.763l33.462,1.293S2012.059,1100.8,2010.465,1120.242Z" transform="translate(-1945.907 -994.293)" fill="#fd9c28"/>
          <path id="Path_2266" data-name="Path 2266" d="M2046.657,1072.03s-2.855,2.258-8.526,2.373c-6.774.137-23.56-1.726-23.56-1.726a13.885,13.885,0,0,0-.713,4.284s20.5,5.172,32.38.755A7.539,7.539,0,0,0,2046.657,1072.03Z" transform="translate(-1984.546 -982.344)" fill="#e65924"/>
          <g id="Group_69" data-name="Group 69" transform="translate(52.117 90.896)">
            <path id="Path_2267" data-name="Path 2267" d="M2116.4,1080.98a3.115,3.115,0,1,1,3.091,3.5A3.318,3.318,0,0,1,2116.4,1080.98Zm1.025,0a2.1,2.1,0,1,0,2.067-2.474,2.3,2.3,0,0,0-2.067,2.474Z" transform="translate(-2116.4 -1077.48)" fill="#fff"/>
          </g>
          <rect id="Rectangle_25" data-name="Rectangle 25" width="27.851" height="38.124" transform="translate(28.957 111.979) rotate(-138.952)" fill="#45391d"/>
          <path id="Path_2268" data-name="Path 2268" d="M2033.267,1090.33s7.7.9,7.672,2.727-1.918,5.58-2.868,5.747-6.263-5.076-6.263-5.076Z" transform="translate(-1998.508 -996.575)" fill="#f5c99d"/>
          <path id="Path_2269" data-name="Path 2269" d="M1937.223,864s-10.275.72-14.214,10.3-11.412,25.65-11.412,28.354,4.174,11.041,26.592,15.834c0,0,2.319-2.439,2.178-4.368,0,0-13.994-12.02-13.956-13.425.071-2.657,2.295-6.166,14.581-18.455C1944.333,878.892,1937.223,864,1937.223,864Z" transform="translate(-1905.036 -820.588)" fill="#b8db70"/>
          <g id="Group_70" data-name="Group 70" transform="translate(89.431 9.452)">
            <path id="Path_2270" data-name="Path 2270" d="M2287.437,802.958l30.791-90.5c.142-.412.331-.806-.079-.955l-.373-.136c-.42-.152-.543.118-.7.538l-32.822,89.2a1.726,1.726,0,0,0,.92,2.167l.76.338a1.107,1.107,0,0,0,1.5-.651Z" transform="translate(-2284.154 -711.324)" fill="#002822"/>
          </g>
          <path id="Path_2271" data-name="Path 2271" d="M2315.871,993.521a14.7,14.7,0,0,0,2.88-.433c1.166-.3,2.657-.847,2.657-.847.88.64-2.175,2.386-2.954,3.579-.637.972-1.361,1.255-3.115,1.632Z" transform="translate(-2218.969 -920.304)" fill="#f5c99d"/>
          <path id="Path_2272" data-name="Path 2272" d="M2067.483,1777.613c4.28-.531,3.15.563,9.15.6s8.052-1.963,8.336-2.823c.254-.763-2.641-1.38-5.739-2.109l-.11.078a16.522,16.522,0,0,1-8.717,1.625c-4.031-.371-8.153-2.021-10.933-2.3a10.507,10.507,0,0,0-.259,2.787C2059.428,1778.145,2063.206,1778.145,2067.483,1777.613Z" transform="translate(-2019.8 -1527.149)" fill="#1e3865"/>
          <path id="Path_2273" data-name="Path 2273" d="M1898.887,1734.469h-6.63c-1.927,0-4.122-1.476-4.658-4.955s-4.5-5.379-5.354-8.223c-.588-1.955.8-3.352,2.119-4.427a34.492,34.492,0,0,1,3.844,8.84c1.8,5.87,6.121,6.037,9.586,5.55a6.575,6.575,0,0,0,1.6,1.017C1902.458,1733.653,1898.887,1734.469,1898.887,1734.469Z" transform="translate(-1882.107 -1483.744)" fill="#1e3865"/>
          <path id="Path_2274" data-name="Path 2274" d="M2033.977,811.424a6.194,6.194,0,0,0,4.522-3.933,31.56,31.56,0,0,0,1.534-10.469l.648.13,10.933,2.165s-.249,3.441-.259,6.681v.08a6.287,6.287,0,0,0,4.536,6.08c1.381.4-6.584,10.887-7.5,10.68C2046.51,822.408,2033.316,811.57,2033.977,811.424Z" transform="translate(-2000.176 -768.508)" fill="#f5c99d"/>
          <path id="Path_2275" data-name="Path 2275" d="M2075.151,799.762s-.249,3.441-.259,6.682c-6.117-.172-9.351-5.753-10.677-8.847Z" transform="translate(-2023.706 -768.956)" fill="#d8a982"/>
          <path id="Path_2276" data-name="Path 2276" d="M2071.355,735.748s-14.475.239-14.485-8.777-1.885-15.058,7.356-15.592,11.041,2.905,11.776,5.914S2075.114,735.453,2071.355,735.748Z" transform="translate(-2017.867 -701.872)" fill="#f5c99d"/>
          <path id="Path_2277" data-name="Path 2277" d="M2054.549,704.173s-3.963,10.578-10.045,12.142-8.72-.065-8.72-.065a17.225,17.225,0,0,0,5.634-10.174S2051.555,699.139,2054.549,704.173Z" transform="translate(-2001.596 -694.887)" fill="#070707"/>
          <path id="Path_2278" data-name="Path 2278" d="M2115.73,708.411a9,9,0,0,1,4.147,3.24,14.574,14.574,0,0,1,1.957,8.278s2.987-7.19-.37-11.257C2117.907,704.362,2115.73,708.411,2115.73,708.411Z" transform="translate(-2063.761 -698.266)" fill="#070707"/>
          <path id="Path_2279" data-name="Path 2279" d="M2109.84,794.685s.25,1.063,2.894.9c0,0,2.219-.137,2.152-1.3a7.14,7.14,0,0,0-5.045.406Z" transform="translate(-2059.182 -766.163)" fill="#fff"/>
          <path id="Path_2280" data-name="Path 2280" d="M2044.423,861.58s-9.79-10.458-10.158-14.732a14.254,14.254,0,0,0-5.433,3.55s2.352,5.9,5.162,7.838a17.848,17.848,0,0,0,3.654-.95,31.166,31.166,0,0,1-1.833,2.708S2040.25,862.51,2044.423,861.58Z" transform="translate(-1996.192 -807.251)" fill="#97c157"/>
          <path id="Path_2281" data-name="Path 2281" d="M2102.347,848.647s3.862,7.057-3.432,14.332c0,0,4.577-.875,6.928-4.1a6.652,6.652,0,0,0-1.349-2.133,2.335,2.335,0,0,1,2.238.255s.523-3.785,0-4.937S2103.481,848.609,2102.347,848.647Z" transform="translate(-2050.688 -808.65)" fill="#97c157"/>
          <path id="Path_2282" data-name="Path 2282" d="M2095.64,910.53a.729.729,0,1,1,.729.729A.729.729,0,0,1,2095.64,910.53Z" transform="translate(-2048.139 -856.202)" fill="#002822"/>
          <path id="Path_2283" data-name="Path 2283" d="M2113.12,957a.729.729,0,1,1,.729.73.729.729,0,0,1-.729-.73Z" transform="translate(-2061.734 -892.34)" fill="#002822"/>
          <path id="Path_2284" data-name="Path 2284" d="M2116.4,1011.514a.729.729,0,1,1,.729.729A.729.729,0,0,1,2116.4,1011.514Z" transform="translate(-2064.284 -934.723)" fill="#002822"/>
          <path id="Path_2285" data-name="Path 2285" d="M2083.689,1235.06c-1.595,19.435-3.472,35.805-3.472,35.805a47.911,47.911,0,0,1-21.886,6.883,35.475,35.475,0,0,0,12.917-9.215C2076.735,1262.11,2083.689,1235.06,2083.689,1235.06Z" transform="translate(-2019.131 -1109.109)" fill="#e65924"/>
        </g>
        <g id="Group_72" data-name="Group 72" transform="translate(254.436 18.934)" opacity="0.6">
          <path id="Path_2286" data-name="Path 2286" d="M2533.436,587.2h1.189l3.211,7.35h-1.355l-.74-1.762h-3.451l-.75,1.762h-1.313Zm1.835,4.452-1.262-2.916-1.25,2.916Z" transform="translate(-2520.631 -587.124)" fill="#fff"/>
          <path id="Path_2287" data-name="Path 2287" d="M2598.89,587.43h3.274a2.636,2.636,0,0,1,1.909.648,1.65,1.65,0,0,1,.49,1.231,1.737,1.737,0,0,1-1.043,1.626,1.8,1.8,0,0,1,1.45,1.794c0,1.3-1.074,2-2.7,2h-3.378Zm3.013,3.076c.824,0,1.376-.324,1.376-1.012,0-.574-.459-.928-1.282-.928h-1.845v1.94Zm.375,3.086c.876,0,1.408-.344,1.408-1.022,0-.615-.49-.98-1.5-.98h-2.032v2Z" transform="translate(-2574.022 -587.302)" fill="#fff"/>
          <path id="Path_2288" data-name="Path 2288" d="M2660.1,590.644a3.694,3.694,0,0,1,3.764-3.774,3.8,3.8,0,0,1,2.857,1.137l-.824.949a2.9,2.9,0,0,0-2.043-.907,2.6,2.6,0,0,0,0,5.192,2.861,2.861,0,0,0,2.1-.949l.824.834a3.767,3.767,0,0,1-2.961,1.3,3.676,3.676,0,0,1-3.712-3.778Z" transform="translate(-2621.618 -586.867)" fill="#fff"/>
          <path id="Path_2289" data-name="Path 2289" d="M2503.58,661.084h2.722a3.656,3.656,0,1,1,0,7.3h-2.722Zm2.722,6.131a2.482,2.482,0,1,0,0-4.963h-1.439v4.963Z" transform="translate(-2499.912 -644.574)" fill="#fff"/>
          <path id="Path_2290" data-name="Path 2290" d="M2569.06,661.084h5.411v1.147h-4.129v1.9H2574v1.147h-3.659v1.96h4.181v1.147h-5.463Z" transform="translate(-2550.826 -644.574)" fill="#fff"/>
          <path id="Path_2291" data-name="Path 2291" d="M2629.29,661.084h5.432v1.167h-4.147v1.992h3.68v1.167h-3.68v2.971h-1.283Z" transform="translate(-2597.659 -644.574)" fill="#fff"/>
          <path id="Path_2292" data-name="Path 2292" d="M2687.408,664.295a3.718,3.718,0,0,1,3.764-3.774,3.942,3.942,0,0,1,2.8.99l-.814.972a2.855,2.855,0,0,0-2.043-.782,2.475,2.475,0,0,0-2.367,2.6,2.438,2.438,0,0,0,2.482,2.606,2.982,2.982,0,0,0,1.762-.553v-1.366h-1.866V663.87h3.106v3.065a4.653,4.653,0,0,1-3.046,1.137,3.629,3.629,0,0,1-3.783-3.777Z" transform="translate(-2642.849 -644.135)" fill="#fff"/>
          <path id="Path_2293" data-name="Path 2293" d="M2487.1,734.736h1.283v3.034h3.482v-3.034h1.282v7.3h-1.282V738.96h-3.482v3.076H2487.1Z" transform="translate(-2487.1 -701.843)" fill="#fff"/>
          <path id="Path_2294" data-name="Path 2294" d="M2551.88,734.736h1.283v7.3h-1.283Z" transform="translate(-2537.469 -701.843)" fill="#fff"/>
          <path id="Path_2295" data-name="Path 2295" d="M2592,740.962l.843-.865a1.815,1.815,0,0,0,1.47.855c.688,0,1.157-.459,1.157-1.426V734.74h1.314v4.817a2.644,2.644,0,0,1-.678,1.939,2.437,2.437,0,0,1-1.772.648,2.75,2.75,0,0,1-2.333-1.182Z" transform="translate(-2568.666 -701.845)" fill="#fff"/>
          <path id="Path_2296" data-name="Path 2296" d="M2650.26,734.736h1.281v3.671l3.472-3.67h1.574l-3.033,3.139,3.169,4.16h-1.555l-2.485-3.285-1.137,1.167v2.119h-1.282Z" transform="translate(-2613.968 -701.843)" fill="#fff"/>
          <path id="Path_2297" data-name="Path 2297" d="M2713.07,734.736h1.283v6.131h3.836v1.169h-5.119Z" transform="translate(-2662.804 -701.843)" fill="#fff"/>
          <path id="Path_2298" data-name="Path 2298" d="M2496.92,808.388h1.366l2.22,3.451,2.221-3.451h1.366v7.3h-1.282v-5.234l-2.3,3.44h-.042l-2.283-3.42v5.213h-1.261Z" transform="translate(-2494.735 -759.112)" fill="#fff"/>
          <path id="Path_2299" data-name="Path 2299" d="M2566.43,808.388h1.188l3.91,5.047v-5.047h1.261v7.3h-1.073l-4.024-5.192v5.192h-1.262Z" transform="translate(-2548.784 -759.112)" fill="#fff"/>
          <path id="Path_2300" data-name="Path 2300" d="M2630.83,811.554a3.816,3.816,0,1,1,3.805,3.774,3.739,3.739,0,0,1-3.805-3.774Zm6.286,0a2.5,2.5,0,0,0-2.482-2.6,2.472,2.472,0,0,0-2.463,2.6,2.5,2.5,0,0,0,2.482,2.6,2.471,2.471,0,0,0,2.463-2.6Z" transform="translate(-2598.86 -758.63)" fill="#fff"/>
          <path id="Path_2301" data-name="Path 2301" d="M2700.95,808.388h2.877a2.46,2.46,0,0,1,2.774,2.463c0,1.637-1.313,2.492-2.919,2.492h-1.449v2.346h-1.282Zm2.773,3.8c.972,0,1.574-.542,1.574-1.324,0-.855-.615-1.3-1.574-1.3h-1.491v2.627Z" transform="translate(-2653.383 -759.112)" fill="#fff"/>
          <path id="Path_2302" data-name="Path 2302" d="M2508.916,888.331a3.779,3.779,0,1,1,.865-.844l.834.709-.823.918Zm-.949-.843-1.25-1.063.823-.938,1.262,1.147a2.633,2.633,0,0,0-2.106-3.983,2.471,2.471,0,0,0-2.462,2.6,2.5,2.5,0,0,0,2.481,2.6,2.326,2.326,0,0,0,1.256-.356Z" transform="translate(-2499.385 -815.937)" fill="#fff"/>
          <path id="Path_2303" data-name="Path 2303" d="M2572.97,882.039h3.253c1.709,0,2.711.918,2.711,2.325a2.19,2.19,0,0,1-1.741,2.211l1.971,2.763h-1.512l-1.814-2.544h-1.585v2.544h-1.283Zm3.159,3.618c.917,0,1.5-.48,1.5-1.241,0-.782-.563-1.209-1.512-1.209h-1.866v2.45Z" transform="translate(-2553.868 -816.38)" fill="#fff"/>
          <path id="Path_2304" data-name="Path 2304" d="M2633.48,887.909l.771-.918a3.361,3.361,0,0,0,2.3.949c.792,0,1.293-.365,1.293-.938,0-.518-.292-.8-1.647-1.126-1.555-.365-2.43-.824-2.43-2.189a2.232,2.232,0,0,1,2.492-2.117,4.046,4.046,0,0,1,2.649.918l-.688.972a3.315,3.315,0,0,0-1.981-.75c-.75,0-1.189.389-1.189.886,0,.563.334.813,1.731,1.147,1.543.375,2.346.928,2.346,2.158,0,1.365-1.074,2.179-2.607,2.179a4.5,4.5,0,0,1-3.044-1.17Z" transform="translate(-2600.919 -816.015)" fill="#fff"/>
          <path id="Path_2305" data-name="Path 2305" d="M2694.483,883.228h-2.315v-1.189h5.922v1.189h-2.315v6.109h-1.293Z" transform="translate(-2646.551 -816.38)" fill="#fff"/>
          <path id="Path_2306" data-name="Path 2306" d="M2523.78,959.892v-4.2h1.283v4.148c0,1.356.7,2.085,1.845,2.085s1.836-.688,1.836-2.034v-4.2h1.282v4.139c0,2.179-1.231,3.274-3.138,3.274A2.878,2.878,0,0,1,2523.78,959.892Z" transform="translate(-2515.619 -873.649)" fill="#fff"/>
          <path id="Path_2307" data-name="Path 2307" d="M2585.79,955.69h1.418l2.2,5.609,2.189-5.609h1.387l-3.034,7.351h-1.126Z" transform="translate(-2563.836 -873.649)" fill="#fff"/>
          <path id="Path_2308" data-name="Path 2308" d="M2650.05,955.618h1.386l1.741,5.411,1.794-5.432h1.084l1.793,5.432,1.741-5.411h1.344l-2.544,7.351h-1.106l-1.793-5.244-1.794,5.244h-1.1Z" transform="translate(-2613.803 -873.576)" fill="#fff"/>
          <path id="Path_2309" data-name="Path 2309" d="M2535.626,1032.932l-2.554-3.587h1.512l1.815,2.617,1.825-2.617h1.47l-2.544,3.564,2.648,3.732h-1.512l-1.918-2.763-1.929,2.763h-1.47Z" transform="translate(-2522.764 -930.92)" fill="#eaf7f9"/>
          <path id="Path_2310" data-name="Path 2310" d="M2597.966,1033.759l-2.9-4.421h1.512l2.044,3.232,2.064-3.232h1.471l-2.9,4.389v2.909h-1.292Z" transform="translate(-2571.051 -930.917)" fill="#eaf7f9"/>
          <path id="Path_2311" data-name="Path 2311" d="M2659.66,1035.691l4.306-5.214h-4.17v-1.137h5.839v.949l-4.306,5.213h4.306v1.137h-5.974Z" transform="translate(-2621.275 -930.918)" fill="#eaf7f9"/>
        </g>
        <g id="Group_77" data-name="Group 77" transform="translate(406.331 161.73)">
          <g id="Group_73" data-name="Group 73" transform="translate(0.31 3.14)">
            <rect id="Rectangle_26" data-name="Rectangle 26" width="1.313" height="15.471" transform="matrix(0.987, -0.159, 0.159, 0.987, 0, 2.796)" fill="#679b40"/>
            <path id="Path_2312" data-name="Path 2312" d="M3171.583,1242.95l-.216,2.793,1.3-.208Z" transform="translate(-3171.364 -1242.95)" fill="#4ac195"/>
          </g>
          <g id="Group_74" data-name="Group 74" transform="translate(11.53 4.463)">
            <rect id="Rectangle_27" data-name="Rectangle 27" width="1.312" height="15.47" transform="translate(2.827 2.555) rotate(10.529)" fill="#679b40"/>
            <path id="Path_2313" data-name="Path 2313" d="M3235.649,1248.88l-1.142,2.558,1.291.24Z" transform="translate(-3231.683 -1248.88)" fill="#4ac195"/>
          </g>
          <g id="Group_75" data-name="Group 75" transform="translate(9.888 0)">
            <rect id="Rectangle_28" data-name="Rectangle 28" width="1.312" height="15.47" transform="matrix(0.983, 0.183, -0.183, 0.983, 2.831, 2.557)" fill="#679b40"/>
            <path id="Path_2314" data-name="Path 2314" d="M3228.3,1228.82l-1.143,2.558,1.291.24Z" transform="translate(-3224.323 -1228.82)" fill="#4ac195"/>
          </g>
          <g id="Group_76" data-name="Group 76" transform="translate(0 12.177)">
            <rect id="Rectangle_29" data-name="Rectangle 29" width="10.338" height="14.9" transform="translate(5.17)" fill="#e65924"/>
            <rect id="Rectangle_30" data-name="Rectangle 30" width="10.339" height="14.9" fill="#fd9c28"/>
          </g>
        </g>
        <g id="Group_84" data-name="Group 84" transform="translate(1.498 128.616)">
          <g id="Group_79" data-name="Group 79" transform="translate(6.094 29.09)">
            <path id="Path_2315" data-name="Path 2315" d="M1405.559,1223.073s5.1-5.947.314-9.725c0,0-3.494-2.116-6.343-1.944,0,0,4.037,6.77,2.731,7.443s-3.953-7.868-3.953-7.868-7.951-.77-10.51.459c0,0,6.8,5.562,5.366,5.894s-8.777-5.126-8.777-5.126-7.4,1.259-7.006,5.774,2.945,5.908,4.065,5.788,7.677-2.623,7.82-1.7-3.8,3.92-6.567,4.06c0,0,5.218,5.753,8.684,4.093s3.763-4.293,5.924-5.28,4.006-.985,3.115.022-4.8,1.986-6.041,4.172-2.345,3.661,1.242,3.121,9.419-3.165,9.675-6.171Z" transform="translate(-1377.366 -1210.74)" fill="url(#linear-gradient)"/>
            <g id="Group_78" data-name="Group 78" transform="translate(3.651 7.325)">
              <path id="Path_2316" data-name="Path 2316" d="M1393.78,1243.7s20.1-.778,24.539,4.974a14.541,14.541,0,0,0,4,5.617l.471,1.283s-3.483-3.673-4.731-3.895C1418.063,1251.678,1420.013,1244.563,1393.78,1243.7Z" transform="translate(-1393.78 -1243.666)" fill="url(#linear-gradient)"/>
              <path id="Path_2317" data-name="Path 2317" d="M1518.124,1289.666a12.621,12.621,0,0,1,4.614,8.891l-.783.071s-1.378-5.9-3.868-8.2S1518.124,1289.666,1518.124,1289.666Z" transform="translate(-1489.584 -1279.042)" fill="url(#linear-gradient)"/>
            </g>
          </g>
          <g id="Group_81" data-name="Group 81" transform="translate(46.779 12.948)">
            <path id="Path_2318" data-name="Path 2318" d="M1565.6,1159.156s-8.109-4.541-4.325-10.7c0,0,3.028-3.785,6.271-4.757,0,0-1.73,9.19,0,9.407s1.189-10.38,1.189-10.38,8.542-4.109,11.893-3.785c0,0-5.3,8.974-3.568,8.758s7.677-9.3,7.677-9.3,8.758-1.62,10.163,3.568-.865,7.785-2.162,8.109-9.623.216-9.407,1.3,5.838,2.811,8.974,1.838c0,0-3.46,8.542-8,8.109s-5.946-3.244-8.758-3.46-4.866.541-3.46,1.3,6.163.248,8.433,2.178,4.109,3.12-.108,3.985-11.786.324-13.3-2.92Z" transform="translate(-1560.264 -1138.156)" fill="url(#linear-gradient-4)"/>
            <g id="Group_80" data-name="Group 80" transform="translate(1.076 5.426)">
              <path id="Path_2319" data-name="Path 2319" d="M1601.975,1162.56s-22.706,7.352-25.3,15.57a17.246,17.246,0,0,1-2.163,7.893v1.62s2.379-5.514,3.677-6.271C1578.185,1181.373,1573.1,1174.238,1601.975,1162.56Z" transform="translate(-1572.418 -1162.56)" fill="url(#linear-gradient)"/>
              <path id="Path_2320" data-name="Path 2320" d="M1567.113,1264.512a14.977,14.977,0,0,0-1.505,11.79l.9-.242s-.874-7.129.958-10.715S1567.113,1264.512,1567.113,1264.512Z" transform="translate(-1565.02 -1241.049)" fill="url(#linear-gradient)"/>
            </g>
          </g>
          <g id="Group_83" data-name="Group 83" transform="translate(0 0)">
            <path id="Path_2321" data-name="Path 2321" d="M1389.167,1107.637s10.689-5.986,5.7-14.11c0,0-3.991-4.99-8.267-6.271,0,0,2.281,12.115,0,12.4s-1.567-13.682-1.567-13.682-11.26-5.416-15.678-4.99c0,0,6.984,11.83,4.7,11.544s-10.119-12.257-10.119-12.257-11.544-2.139-13.4,4.7,1.14,10.262,2.851,10.69,12.685.285,12.4,1.711-7.7,3.706-11.83,2.423c0,0,4.56,11.26,10.546,10.69s7.842-4.277,11.545-4.561,6.416.713,4.561,1.71-8.124.324-11.117,2.872-5.417,4.112.142,5.252,15.536.428,17.531-3.848Z" transform="translate(-1349.96 -1079.955)" fill="url(#linear-gradient-4)"/>
            <g id="Group_82" data-name="Group 82" transform="translate(5.854 7.163)">
              <path id="Path_2322" data-name="Path 2322" d="M1376.29,1112.14s29.931,9.692,33.352,20.524a22.736,22.736,0,0,0,2.852,10.4v2.139s-3.136-7.269-4.846-8.267C1407.649,1136.935,1414.35,1127.531,1376.29,1112.14Z" transform="translate(-1376.29 -1112.14)" fill="url(#linear-gradient)"/>
              <path id="Path_2323" data-name="Path 2323" d="M1534.043,1246.526a19.742,19.742,0,0,1,1.984,15.542l-1.188-.319s1.153-9.4-1.262-14.128S1534.043,1246.526,1534.043,1246.526Z" transform="translate(-1497.841 -1215.601)" fill="url(#linear-gradient)"/>
            </g>
          </g>
          <path id="Path_2324" data-name="Path 2324" d="M1433.72,1310.1a20.939,20.939,0,1,0,41.877,0Z" transform="translate(-1415.088 -1258.905)" fill="#e65924"/>
          <path id="Path_2325" data-name="Path 2325" d="M1495.68,1310.1c0,7.845,1.88,15.835,8.266,19.421,1.061.6,4.616-.049,5.782.357a20.947,20.947,0,0,0,14.048-19.778Z" transform="translate(-1463.267 -1258.905)" fill="#fd9c28"/>
          <path id="Path_2326" data-name="Path 2326" d="M1432.42,1399.987h42.456a2.583,2.583,0,0,0-2.584-2.584H1435a2.584,2.584,0,0,0-2.579,2.584Z" transform="translate(-1414.077 -1326.792)" fill="#e65924"/>
          <path id="Path_2327" data-name="Path 2327" d="M1521.85,1399.987h22.564a2.584,2.584,0,0,0-2.584-2.584h-17.4a2.584,2.584,0,0,0-2.583,2.583Z" transform="translate(-1483.615 -1326.792)" fill="#fd9c28"/>
          <rect id="Rectangle_31" data-name="Rectangle 31" width="43.043" height="0.642" transform="translate(61.196 51.834) rotate(180)" fill="#e65924"/>
        </g>
      </g>
      <rect id="Rectangle_32" data-name="Rectangle 32" width="593" height="1" transform="translate(32.58 434.536)" fill="#3918ab"/>
    </g>
  </g>
</svg>
